<svg width="32" height="32" viewBox="0 0 32 32" fill="none" xmlns="http://www.w3.org/2000/svg">
<path d="M24.4201 8.57996C23.9184 8.07653 23.3223 7.67709 22.6659 7.40455C22.0095 7.132 21.3058 6.9917 20.5951 6.9917C19.8844 6.9917 19.1806 7.132 18.5243 7.40455C17.8679 7.67709 17.2718 8.07653 16.7701 8.57996L16.0001 9.35996L15.2301 8.57996C14.7284 8.07653 14.1323 7.67709 13.4759 7.40455C12.8195 7.132 12.1158 6.9917 11.4051 6.9917C10.6944 6.9917 9.99065 7.132 9.33427 7.40455C8.67789 7.67709 8.08176 8.07653 7.58009 8.57996C5.46009 10.7 5.33009 14.28 8.00009 17L16.0001 25L24.0001 17C26.6701 14.28 26.5401 10.7 24.4201 8.57996Z" stroke="black" stroke-width="2" stroke-linecap="round" stroke-linejoin="round"/>
</svg>
